<?xml version="1.0" encoding="UTF-8" standalone="no"?>
<!-- Created with Inkscape (http://www.inkscape.org/) -->

<svg
   xmlns:dc="http://purl.org/dc/elements/1.1/"
   xmlns:cc="http://creativecommons.org/ns#"
   xmlns:rdf="http://www.w3.org/1999/02/22-rdf-syntax-ns#"
   xmlns:svg="http://www.w3.org/2000/svg"
   xmlns="http://www.w3.org/2000/svg"
   xmlns:sodipodi="http://sodipodi.sourceforge.net/DTD/sodipodi-0.dtd"
   xmlns:inkscape="http://www.inkscape.org/namespaces/inkscape"
   width="210mm"
   height="297mm"
   viewBox="0 0 210 297"
   version="1.1"
   id="svg8"
   inkscape:version="0.92.4 (5da689c313, 2019-01-14)"
   sodipodi:docname="icon.svg">
  <defs
     id="defs2" />
  <sodipodi:namedview
     id="base"
     pagecolor="#ffffff"
     bordercolor="#666666"
     borderopacity="1.0"
     inkscape:pageopacity="0.0"
     inkscape:pageshadow="2"
     inkscape:zoom="0.98994949"
     inkscape:cx="398.82651"
     inkscape:cy="498.01109"
     inkscape:document-units="mm"
     inkscape:current-layer="g826"
     showgrid="false"
     inkscape:window-width="1920"
     inkscape:window-height="1057"
     inkscape:window-x="-8"
     inkscape:window-y="-8"
     inkscape:window-maximized="1" />
  <metadata
     id="metadata5">
    <rdf:RDF>
      <cc:Work
         rdf:about="">
        <dc:format>image/svg+xml</dc:format>
        <dc:type
           rdf:resource="http://purl.org/dc/dcmitype/StillImage" />
        <dc:title></dc:title>
      </cc:Work>
    </rdf:RDF>
  </metadata>
  <g
     inkscape:label="Layer 1"
     inkscape:groupmode="layer"
     id="layer1">
    <g
       id="g826"
       transform="matrix(0.80585107,0,0,0.87919133,19.422543,3.6705652)">
      <path
         style="fill:#ceeafa;stroke-width:0.11347683"
         d="m 105.14161,302.98829 c -18.133956,-0.73151 -32.914552,-5.0481 -36.681039,-10.7125 -0.690398,-1.03829 -0.912953,-1.72847 -0.915661,-2.8396 -0.0027,-1.09191 0.278642,-1.92126 1.005118,-2.96337 1.964797,-2.81845 6.945965,-5.45931 13.844243,-7.33979 1.055233,-0.28765 1.916391,-0.55543 1.913682,-0.59505 -0.0027,-0.0396 -0.753383,-0.7754 -1.668163,-1.63503 -3.004397,-2.82329 -6.197936,-6.41552 -8.853489,-9.95879 -4.235125,-5.65087 -8.195754,-13.42885 -10.881116,-21.36861 -1.192316,-3.52529 -2.281592,-7.40904 -2.716375,-9.68507 l -0.162541,-0.85087 0.410364,-3.37736 0.410364,-3.37737 -0.673791,-2.57913 c -1.479578,-5.66355 -2.287455,-10.48714 -2.738434,-16.35037 -0.203903,-2.65097 -0.22994,-10.06353 -0.04463,-12.70765 0.350523,-5.00161 0.962584,-9.92791 1.781479,-14.33856 1.965942,-10.58877 4.528336,-20.49383 10.881852,-42.06434 2.979743,-10.11637 2.744037,-9.17431 3.177252,-12.69871 0.20734,-1.6868 0.467202,-3.43387 0.577474,-3.88238 0.317812,-1.29264 1.734587,-5.83225 5.577786,-17.87224 C 87.504771,80.356893 91.016532,68.836763 94.943159,54.757065 99.292337,39.162223 103.59996,21.439779 106.3896,7.6640411 c 0.21949,-1.083887 0.43027,-2.0191656 0.46839,-2.0783968 0.1142,-0.177415 0.22387,0.1335349 0.94873,2.6899946 1.73646,6.1241651 4.65042,15.6852891 7.22809,23.7164001 4.23508,13.195058 6.86184,20.884288 18.64132,54.568107 11.22115,32.087284 13.40394,38.463854 17.0278,49.743284 12.97487,40.38475 16.74864,63.06041 14.41947,86.64301 -1.20896,12.24054 -4.41269,23.7631 -9.08816,32.6865 -4.24259,8.09721 -10.06843,15.5107 -16.94818,21.56686 -0.76164,0.67046 -1.41879,1.26614 -1.46033,1.32374 -0.0416,0.0576 0.76852,0.3363 1.80017,0.61932 8.05808,2.21063 13.38381,5.40621 14.5603,8.73661 0.313,0.88605 0.33743,2.11565 0.0595,2.99417 -0.24489,0.77403 -1.12538,2.08048 -1.89239,2.80796 -6.65593,6.31264 -26.05166,10.15225 -47.01267,9.30669 z M 83.975383,191.70066 c 0.02897,-0.0673 0.276641,-0.19703 0.550381,-0.28843 1.321012,-0.44105 2.758198,-2.05345 3.293843,-3.69541 0.402074,-1.23252 0.50988,-2.21831 0.38646,-3.53383 -0.317333,-3.38243 -1.767518,-6.90851 -3.309831,-8.04771 -0.174201,-0.12868 -0.294139,-0.26636 -0.266529,-0.30596 0.02761,-0.0396 0.390333,-0.1567 0.80605,-0.26018 2.289298,-0.56987 4.215569,-2.37311 5.434488,-5.08736 0.747453,-1.66441 1.109508,-3.12032 1.305808,-5.25098 0.174773,-1.89702 -0.211838,-4.57169 -0.946691,-6.54943 -0.874968,-2.35486 -2.747731,-4.6568 -4.336392,-5.33017 -0.244833,-0.10378 -0.618688,-0.45204 -0.94746,-0.88261 l -0.543053,-0.71118 0.590328,0.0177 c 0.824669,0.0247 0.88923,-0.0961 0.98298,-1.83859 0.159875,-2.97155 0.560165,-6.37201 1.367879,-11.62006 0.232263,-1.50912 0.422297,-2.86501 0.422297,-3.01309 0,-0.20441 -0.119781,-0.32574 -0.497416,-0.50383 -0.27358,-0.12902 -0.551227,-0.26309 -0.616996,-0.29792 -0.326363,-0.17285 -2.109183,6.85666 -3.00772,11.85919 -0.241677,1.34552 -0.479285,2.66873 -0.528018,2.94048 -0.05127,0.2859 -0.159411,0.52065 -0.256646,0.55713 -0.100996,0.0379 -0.3599,0.62909 -0.648916,1.4818 -0.440283,1.29902 -0.510013,1.43162 -0.826066,1.57075 -0.416386,0.18331 -0.421937,0.14449 -0.140353,-0.9819 l 0.204877,-0.81956 -0.528104,-1.28718 c -0.834826,-2.03478 -1.842757,-5.38328 -2.207903,-7.33497 -0.0909,-0.48588 -0.198121,-0.93656 -0.238261,-1.00153 -0.04014,-0.0649 -0.156485,0.11853 -0.258544,0.40774 -0.535601,1.51775 -2.516385,9.68969 -3.322946,13.70916 -1.267793,6.31802 -1.843199,10.82001 -1.966263,15.38408 l -0.06159,2.2843 1.362123,0.44261 1.362124,0.4426 0.156697,-0.29799 c 0.08618,-0.1639 0.29591,-0.79119 0.466059,-1.39398 0.170147,-0.6028 0.344411,-1.15298 0.387251,-1.22264 0.04508,-0.0733 0.298256,0.21297 0.600999,0.67955 0.621308,0.95754 0.625924,0.40462 -0.04701,5.63103 -0.548362,4.25894 -1.005841,8.15981 -1.095814,9.34386 l -0.06455,0.84944 h 0.95105 0.95105 l 0.482027,0.87986 c 1.065036,1.94405 2.581258,3.1059 4.148547,3.17895 0.218393,0.0102 0.420782,-0.0365 0.449752,-0.10374 z M 71.185122,175.03795 c 0.0352,-0.82226 0.168075,-3.41277 0.29527,-5.75669 0.127195,-2.3439 0.231263,-4.59901 0.231263,-5.01135 0,-0.64425 -0.01959,-0.72637 -0.139303,-0.58385 -0.07662,0.0912 -0.374485,0.84792 -0.661928,1.68155 -1.201685,3.4851 -1.275616,6.9083 -0.22662,10.49307 0.190222,0.65005 0.327013,0.96539 0.369641,0.85211 0.03722,-0.0989 0.09647,-0.85258 0.131677,-1.67484 z M 107.00244,13.638149 c 0.0911,-0.638659 0.14823,-1.280836 0.12694,-1.427061 -0.0213,-0.146224 -0.11542,0.315155 -0.20917,1.025288 -0.0937,0.710133 -0.19253,1.41347 -0.21951,1.562972 -0.0322,0.178314 -0.0172,0.225067 0.0435,0.13591 0.0509,-0.07475 0.16711,-0.658449 0.25823,-1.297109 z"
         id="path840"
         inkscape:connector-curvature="0" />
      <path
         style="fill:#9dd6f6;stroke-width:0.11347683"
         d="m 107.38354,296.80012 c -6.94139,-0.43686 -11.699033,-1.38466 -15.775218,-3.14271 -1.677389,-0.72346 -3.187051,-2.01243 -3.556153,-3.0363 -0.226238,-0.62758 -0.179309,-1.83921 0.09748,-2.51671 0.44744,-1.09522 2.03878,-2.32743 4.027148,-3.11832 0.495048,-0.19691 0.964041,-0.38866 1.042207,-0.42615 0.183924,-0.0882 -0.14978,-0.33506 -1.89856,-1.40465 -5.563289,-3.40262 -10.497177,-7.78606 -14.966234,-13.29651 -1.246472,-1.53692 -2.866954,-3.74378 -3.126621,-4.25797 l -0.251354,-0.49775 0.659643,-5.3611 0.659644,-5.3611 -0.273415,-0.4511 c -0.150377,-0.24811 -0.660269,-1.03668 -1.133092,-1.7524 -2.59001,-3.92047 -4.258406,-6.70474 -5.970777,-9.96417 -7.985075,-15.19931 -10.909544,-31.40151 -9.034024,-50.0505 0.719466,-7.15391 2.490008,-16.24903 5.159242,-26.50256 3.028101,-11.63208 8.515805,-30.07264 17.027543,-57.21837 0.468773,-1.49501 1.291398,-4.12969 1.828055,-5.85484 1.084109,-3.485004 3.262201,-10.403058 4.425434,-14.05606 0.416553,-1.30814 0.928333,-2.928874 1.137286,-3.601631 0.208954,-0.672758 0.460509,-1.350287 0.559011,-1.505621 0.126751,-0.199881 0.520315,-0.393239 1.346577,-0.661574 l 1.167482,-0.379151 0.358483,-1.105262 c 2.386432,-7.357778 5.737271,-18.969311 8.182743,-28.355339 3.83814,-14.731262 6.40072,-27.050898 7.88062,-37.88612 0.19661,-1.439525 0.40117,-2.693301 0.45459,-2.786167 0.14561,-0.253188 -0.0819,-1.935687 -0.26179,-1.935687 -0.0806,0 -0.16791,0.197642 -0.21023,0.475687 -0.71338,4.68693 -1.41943,8.266533 -2.78358,14.112438 -1.27811,5.477208 -2.93319,11.820164 -3.04312,11.662478 -0.0206,-0.02958 0.17844,-1.811721 0.44234,-3.960324 0.45264,-3.68516 0.53082,-4.132733 1.37951,-7.897716 1.38757,-6.155503 2.30567,-10.367508 3.17422,-14.562451 0.43722,-2.1117113 0.81766,-3.8393136 0.84543,-3.8391166 0.0278,1.971e-4 0.55879,1.7279607 1.18005,3.8394746 2.99261,10.171248 6.38924,20.945514 10.35801,32.85603 3.67063,11.015815 4.19318,12.5219 19.12143,55.111749 9.12622,26.036843 13.37213,38.809613 17.23199,51.838243 6.65493,22.46319 9.6594,37.29102 10.63229,52.47315 0.20159,3.14573 0.23127,11.47569 0.0513,14.40652 -0.5954,9.69855 -1.97045,17.99685 -4.2114,25.41528 -2.56542,8.49261 -5.79203,15.0725 -10.93077,22.29067 -5.98373,8.40509 -12.35509,14.23252 -20.96322,19.17352 l -1.26727,0.72741 0.79354,0.28691 c 2.4133,0.87254 4.17372,2.14441 4.67857,3.38015 0.27679,0.6775 0.32372,1.88913 0.0975,2.51671 -1.01437,2.81382 -7.31381,5.07733 -16.67848,5.99288 -1.44558,0.14134 -8.28335,0.27302 -9.66409,0.18613 z M 85.988662,216.04897 c -0.03187,-1.17732 -0.209119,-3.7919 -0.393888,-5.81018 -0.41783,-4.56404 -0.683869,-7.89133 -0.768833,-9.61567 l -0.0653,-1.32513 h 0.463605 c 0.254983,0 1.001231,-0.0902 1.658329,-0.20047 3.363518,-0.56439 6.704703,-2.14233 9.511494,-4.49196 5.567671,-4.66085 9.588481,-12.05643 11.313041,-20.80839 0.4711,-2.39078 0.68822,-4.14052 0.90197,-7.26903 l 0.0521,-0.76291 -0.49672,-0.47449 -0.49673,-0.47451 -3.01922,-14.18844 c -1.66058,-7.80364 -3.03558,-14.21394 -3.05555,-14.24508 -0.072,-0.1122 -0.13848,0.10082 -0.31248,1.00093 -0.0973,0.50336 -0.21616,0.9715 -0.26412,1.0403 -0.0531,0.0762 -0.32571,-0.17473 -0.69725,-0.6418 -0.872931,-1.09741 -2.309788,-2.62226 -3.293106,-3.49478 -1.741492,-1.54528 -4.290938,-3.16886 -6.009879,-3.82732 -0.354635,-0.13584 -0.639536,-0.32018 -0.639536,-0.41379 0,-0.26489 0.420802,-2.52336 1.234247,-6.62428 0.723179,-3.64586 1.088232,-5.78188 1.007849,-5.89718 -0.03456,-0.0496 -1.863112,5.18441 -1.863112,5.33292 0,0.0337 -0.51176,1.56384 -1.137245,3.40038 -1.119985,3.28849 -1.141196,3.33803 -1.397504,3.26373 -1.71398,-0.49684 -5.530592,-0.58079 -7.460958,-0.16412 -1.581749,0.34143 -4.020417,1.2423 -4.176439,1.54282 -0.06805,0.13107 -0.279126,0.77345 -0.469065,1.42752 -0.189938,0.65407 -0.387098,1.18922 -0.438133,1.18922 -0.05103,0 -0.07046,-0.10703 -0.04315,-0.23784 0.168886,-0.80927 0.35952,-2.09298 0.319365,-2.15058 -0.132143,-0.18956 -0.536695,0.32123 -0.848112,1.07083 -0.939577,2.26162 -4.525216,13.08647 -7.284668,21.99201 -3.070875,9.91059 -5.277359,18.09404 -6.011282,22.29476 l -0.245582,1.40563 0.716095,2.05131 c 0.393853,1.12822 0.716095,2.22327 0.716095,2.43346 0,0.21017 -0.146669,1.70289 -0.32593,3.31715 -0.60506,5.4486 -0.905768,9.5861 -0.905768,12.46264 v 1.53738 l 0.639535,0.73841 c 2.245581,2.59276 5.879888,5.27377 8.787695,6.48264 1.315669,0.54697 4.553253,1.44083 4.66906,1.28907 0.01458,-0.0191 -0.315975,-1.11816 -0.73456,-2.44235 -0.418585,-1.32419 -0.956419,-3.18071 -1.195186,-4.12558 -0.494566,-1.95716 -1.081258,-5.11047 -1.081258,-5.81149 v -0.47154 l 0.639535,0.45461 c 0.351745,0.25003 0.932393,0.63003 1.290331,0.84443 l 0.650794,0.3898 -0.06789,2.14887 -0.06789,2.14887 1.019314,2.75064 c 1.94579,5.25076 3.346147,8.55455 4.839041,11.41653 0.477202,0.91481 1.031908,1.84679 1.232681,2.07105 0.39306,0.43903 0.804542,0.52456 2.8189,0.58591 l 0.843177,0.0257 z"
         id="path838"
         inkscape:connector-curvature="0" />
      <path
         style="fill:#6cc6f4;stroke-width:0.11347683"
         d="m 108.8521,291.98416 c -1.4926,-0.11599 -3.14729,-0.44126 -4.20951,-0.8275 -1.22632,-0.44589 -1.66474,-0.88403 -1.66474,-1.66365 0,-0.55475 0.2668,-1.07394 0.67719,-1.31779 l 0.30462,-0.18099 -0.27773,-0.11108 c -0.15275,-0.0611 -1.02385,-0.32836 -1.93578,-0.59393 -4.587699,-1.33604 -8.947686,-3.37088 -12.36436,-5.77056 -0.729544,-0.5124 -1.380787,-0.9853 -1.447205,-1.05089 -0.09537,-0.0942 0.0088,-1.17465 0.495473,-5.13788 0.338928,-2.76024 0.638724,-5.15327 0.666211,-5.31786 0.04261,-0.25513 -0.0514,-0.38307 -0.637593,-0.86775 -6.055438,-5.00674 -9.233526,-8.47209 -14.588407,-15.90704 -2.324893,-3.22799 -5.293434,-8.08482 -7.258054,-11.87492 -8.772548,-16.92378 -11.213538,-35.5468 -7.499817,-57.21836 1.41727,-8.27053 3.831834,-18.20778 7.124386,-29.32073 0.832367,-2.80939 0.677081,-2.54179 1.661343,-2.86301 0.27499,-0.0898 0.269083,0.0152 -0.0622,1.10539 -0.494698,1.62789 -2.533497,8.60069 -3.185299,10.89388 -4.604815,16.20085 -6.564221,29.20775 -6.205836,41.1955 0.05049,1.68895 0.119934,3.17597 0.154313,3.30449 0.05165,0.19307 2.411095,2.83266 2.839282,3.17641 0.07145,0.0574 0.2778,1.03225 0.467133,2.20694 0.656971,4.07611 1.246938,6.7696 2.129679,9.72301 1.292437,4.32413 3.396315,8.97279 5.340722,11.80065 l 0.867175,1.2612 0.994833,0.22776 c 2.674637,0.61235 6.325114,0.97346 8.47977,0.83881 6.787091,-0.42411 12.453499,-2.32398 18.272479,-6.1265 1.399003,-0.9142 3.825882,-2.75408 4.697142,-3.56102 l 0.52739,-0.48846 -0.33161,-0.10059 c -0.18239,-0.0553 -1.31223,-0.29064 -2.51077,-0.52294 -4.733151,-0.91737 -8.85186,-2.49573 -11.790476,-4.5183 -1.11073,-0.76448 -1.111134,-0.83839 -0.0054,-0.98486 3.077433,-0.40768 7.327946,-1.95855 10.706302,-3.9064 8.168744,-4.7098 15.323104,-13.69707 19.725334,-24.77886 2.28199,-5.7445 3.94042,-12.45193 4.70459,-19.02749 0.45071,-3.87827 0.53565,-5.38702 0.53565,-9.51374 0,-4.1176 -0.0855,-5.64301 -0.53063,-9.46593 -0.83755,-7.19333 -2.81176,-14.76779 -5.39475,-20.69816 l -0.70684,-1.62286 -0.0304,0.52523 c -0.0167,0.28888 0.0163,1.69192 0.0734,3.11788 0.24487,6.1159 0.20989,13.99393 -0.0652,14.68304 -0.0431,0.10798 -2.01278,-8.92758 -4.85326,-22.2636 -2.62939,-12.34494 -5.25589,-24.67281 -5.83665,-27.39529 l -1.05592,-4.949947 -0.15878,1.008542 c -0.0873,0.554699 -0.50215,3.607835 -0.92181,6.784745 -0.8156,6.1743 -1.28707,9.37702 -1.40694,9.55749 -0.0408,0.0614 -0.5846,-0.25531 -1.20843,-0.70389 -5.134752,-3.69229 -11.067889,-5.85486 -16.725981,-6.09645 -1.114687,-0.0476 -1.871235,-0.1335 -1.871235,-0.21246 0,-0.2929 0.818261,-3.02669 3.527898,-11.786613 5.485426,-17.733708 8.541596,-28.208096 11.460409,-39.278164 4.079329,-15.471501 6.744999,-28.021751 8.328259,-39.210209 0.43439,-3.069826 0.56964,-3.773817 0.6902,-3.59257 0.0215,0.03239 0.41038,1.526729 0.86408,3.320749 1.33015,5.25969 3.16196,11.745085 5.23998,18.551797 1.71352,5.612723 3.02545,9.649653 3.13597,9.649653 0.0373,0 0.14714,-0.688048 0.24408,-1.528995 0.0969,-0.840946 0.20432,-1.681893 0.23861,-1.86877 0.0507,-0.276544 1.13845,2.758618 5.8448,16.309272 3.18036,9.156977 7.85981,22.520387 10.39879,29.696467 13.36079,37.762503 19.2743,55.698473 23.88369,72.440353 4.74477,17.23358 7.09123,29.79341 7.97283,42.67593 0.23912,3.49418 0.2402,12.98505 0.002,16.37722 -1.1602,16.51316 -4.85512,29.81522 -11.25531,40.52016 -3.79284,6.3439 -7.899,11.53942 -12.68633,16.05198 -6.61921,6.23929 -13.47409,10.21737 -21.48891,12.47056 -1.0784,0.30318 -2.02385,0.58356 -2.101,0.62308 -0.0916,0.047 -0.006,0.15832 0.248,0.32123 0.62064,0.3986 0.86957,1.19485 0.5997,1.9182 -0.32476,0.87046 -2.7485,1.63673 -5.99484,1.89524 -1.77531,0.14138 -1.96456,0.14109 -3.85558,-0.006 z m 16.12209,-96.91079 c 1.96895,-2.33385 4.2948,-6.30436 5.57846,-9.52312 l 0.61214,-1.53493 0.0266,1.66716 c 0.0209,1.3061 0.0564,1.68355 0.16414,1.74285 0.24716,0.13605 2.31758,-2.12508 3.29114,-3.59428 0.29963,-0.45219 0.54479,-0.86393 0.54479,-0.91499 0,-0.11097 -3.43403,-9.40774 -3.76344,-10.18859 -0.12614,-0.29901 -0.20791,-0.42132 -0.1817,-0.27182 0.0262,0.1495 0.077,1.59909 0.11289,3.22131 l 0.0652,2.94949 -0.98526,1.4676 c -2.37388,3.53604 -4.15862,7.13076 -5.62622,11.33197 -0.68276,1.95451 -1.40448,4.40777 -1.51308,5.14328 l -0.0687,0.4652 0.40198,-0.42407 c 0.2211,-0.23324 0.82453,-0.92492 1.34096,-1.53706 z m 19.31293,-68.40207 c 0,-0.35035 -2.22062,-6.82298 -4.90195,-14.28814 -2.64739,-7.37065 -2.20519,-5.89533 1.48688,4.96074 2.32818,6.84569 3.22944,9.37783 3.33783,9.37783 0.0425,0 0.0772,-0.0227 0.0772,-0.0504 z"
         id="path836"
         inkscape:connector-curvature="0" />
      <path
         style="fill:#4fb8ef;stroke-width:0.11347683"
         d="m 108.89947,290.29556 c -1.21316,-0.27456 -1.7191,-0.69808 -1.35013,-1.13015 0.16877,-0.19763 1.09419,-0.57256 1.43839,-0.58277 0.59103,-0.0175 -0.07,-0.22167 -1.01902,-0.31474 -2.35373,-0.2308 -7.09462,-1.38006 -8.312719,-2.01511 l -0.337357,-0.17588 0.592607,-4.75687 c 0.325939,-2.61628 0.594989,-4.91894 0.597909,-5.11702 0.005,-0.34819 -0.0506,-0.38588 -1.676443,-1.13405 -8.086846,-3.72132 -14.75469,-8.99035 -20.788756,-16.42763 -1.589965,-1.95969 -4.90795,-6.57543 -6.562467,-9.12922 -3.09981,-4.78462 -6.048365,-10.35125 -8.002391,-15.10785 -0.824728,-2.00759 -2.387726,-6.5979 -2.975841,-8.73962 -1.286879,-4.68639 -2.13639,-9.43174 -2.639881,-14.7463 -0.198065,-2.09066 -0.219015,-2.82986 -0.220196,-7.76958 -7.58e-4,-3.00251 0.0201,-5.48979 0.04626,-5.5273 0.02616,-0.0375 0.154069,-0.10661 0.284238,-0.15353 l 0.236671,-0.0853 -0.03152,4.2535 c -0.01734,2.33943 0.01623,5.17091 0.07458,6.29217 0.386624,7.42843 1.727415,14.8116 3.912018,21.54183 0.738183,2.27417 0.891418,2.54784 1.713928,3.06089 l 0.720188,0.44922 -0.115352,-0.36197 c -0.06344,-0.19908 -0.52575,-1.524 -1.027347,-2.94427 -1.498271,-4.24233 -2.508308,-8.15692 -3.12101,-12.09604 -0.282913,-1.81888 -0.342839,-2.65026 -0.19103,-2.65026 0.0898,0 0.160995,0.25926 0.671785,2.44639 1.140139,4.88191 2.927953,9.97869 4.989373,14.22392 1.225785,2.52434 1.43326,2.82555 2.188684,3.17738 0.6011,0.27995 0.716743,0.4084 2.011582,2.2343 2.24539,3.16634 4.315252,5.60163 6.459864,7.60034 1.535094,1.43065 1.613782,1.44969 4.814914,1.16497 9.527478,-0.84739 18.199476,-4.92398 25.887149,-12.16921 2.20028,-2.07365 5.85278,-6.10198 5.85278,-6.45501 0,-0.067 -0.11725,-0.15872 -0.26056,-0.20376 -0.60491,-0.19014 -0.63754,-0.28957 -0.21306,-0.64926 0.55116,-0.46704 3.0006,-3.02923 4.08864,-4.27686 1.28302,-1.4712 1.19368,-1.24938 2.45332,-6.09154 1.03419,-3.97555 0.98498,-3.85368 1.71562,-4.24874 0.93895,-0.50772 2.96088,-1.918 4.10666,-2.86436 4.95894,-4.09587 9.24067,-10.09114 12.18493,-17.06132 2.62115,-6.20523 4.22777,-13.11124 4.77437,-20.5225 0.15349,-2.08103 0.19186,-5.91211 0.0592,-5.91211 -0.16516,0 -0.27585,0.35383 -0.34013,1.08729 -0.15608,1.78085 -0.78833,4.83098 -0.95256,4.5954 -0.0662,-0.0949 -19.39721,-52.27871 -19.55031,-52.77571 -0.0691,-0.22426 -0.56593,-2.15079 -1.10409,-4.28119 -0.53817,-2.1304 -1.06624,-4.16636 -1.17349,-4.52437 -0.23149,-0.77274 -0.38538,-0.98702 -2.23558,-3.11281 -0.78165,-0.89809 -1.47376,-1.73608 -1.53802,-1.86221 -0.248,-0.48678 -0.64298,-3.50174 -2.48506,-18.968597 l -0.76014,-6.382517 -1.54035,-7.249968 c -0.84719,-3.987481 -1.55075,-7.170166 -1.56347,-7.072633 -0.0127,0.09753 -0.2562,2.845481 -0.54108,6.106547 -0.78696,9.008418 -2.06549,20.796961 -2.6613,24.538285 l -0.15525,0.974895 -0.77302,-0.47915 c -4.36164,-2.703525 -9.340494,-4.644453 -14.132217,-5.509225 -0.885876,-0.159875 -1.623046,-0.302696 -1.638157,-0.317379 -0.04439,-0.04313 0.467711,-1.838871 2.110395,-7.400304 5.314685,-17.993271 8.235933,-28.745663 10.911199,-40.161411 2.43374,-10.385122 3.94672,-18.195674 5.09435,-26.298874 0.26996,-1.906146 0.53143,-3.456054 0.58104,-3.44424 0.0496,0.01182 0.47798,1.540809 0.95193,3.397765 2.89248,11.33292 7.19159,25.55734 13.29913,44.002674 2.54864,7.697125 3.85487,11.452635 3.94062,11.329622 0.0159,-0.02277 0.14531,-1.019229 0.28763,-2.214351 0.14232,-1.195123 0.28819,-2.221862 0.32414,-2.281644 0.036,-0.05978 0.41032,0.827035 0.83193,1.970704 3.17431,8.610839 16.5714,46.765521 19.62794,55.900001 12.35254,36.91575 17.55717,58.60149 18.61715,77.57073 1.04508,18.70267 -1.73703,36.27004 -7.88317,49.7775 -4.24452,9.32825 -11.17841,18.5348 -18.73565,24.87644 -7.48495,6.28099 -16.36819,10.24862 -24.96558,11.15072 -0.92992,0.0976 -1.56452,0.30324 -0.98834,0.32031 0.3442,0.0102 1.26962,0.38514 1.43839,0.58277 0.21265,0.249 0.12516,0.52293 -0.23687,0.74165 -0.90304,0.54556 -3.51742,0.74501 -5.0926,0.3885 z M 156.4383,164.83638 c 0.1433,-0.049 0.26055,-0.11006 0.26055,-0.13563 0,-0.1447 -0.72123,-2.85076 -1.21136,-4.54501 -3.5828,-12.38495 -10.26658,-32.22163 -17.90533,-53.14105 -1.63745,-4.48429 -2.1007,-5.70824 -2.1605,-5.70824 -0.1027,0 0.24571,1.06902 3.65436,11.21262 7.98073,23.74943 11.91481,35.9188 14.87262,46.00574 1.93373,6.59455 1.91434,6.53413 2.07536,6.46588 0.0846,-0.0359 0.27099,-0.10529 0.4143,-0.15431 z"
         id="path834"
         inkscape:connector-curvature="0" />
      <path
         style="fill:#17a1e7;stroke-width:0.11347683"
         d="m 110.08351,289.93956 c -1.56417,-0.23392 -1.59933,-0.71451 -0.071,-0.97106 1.05306,-0.17676 2.56643,0.0177 2.80543,0.36058 0.12495,0.17923 0.11255,0.21794 -0.10848,0.33849 -0.22712,0.12387 -0.67522,0.21886 -1.58342,0.33565 -0.18239,0.0235 -0.65151,-0.005 -1.0425,-0.0637 z m 3.69538,-2.24852 c 0,-0.12782 1.04711,-8.63505 1.1062,-8.98728 0.0491,-0.29276 0.0256,-0.3058 -0.55113,-0.30595 -0.33134,-7e-5 -1.45515,-0.0916 -2.49736,-0.20332 -12.315695,-1.32055 -23.227151,-7.42302 -32.551786,-18.20529 -1.392276,-1.60992 -4.062554,-5.25115 -3.49158,-4.76117 0.305892,0.2625 1.098426,1.02267 1.320941,1.267 0.234962,0.258 0.683906,0.34411 3.361488,0.64477 0.662377,0.0744 0.662909,0.0742 0.417032,-0.17255 -0.135406,-0.13587 -0.317665,-0.3512 -0.405022,-0.47854 -0.08736,-0.12732 -0.338973,-0.43611 -0.559149,-0.68617 -0.220177,-0.25008 -0.720089,-0.81799 -1.110916,-1.26205 -0.390828,-0.44406 -1.21861,-1.41964 -1.839515,-2.16795 -0.620905,-0.74831 -1.395927,-1.66943 -1.722269,-2.04694 -0.813723,-0.94132 -5.139861,-7.3442 -6.272862,-9.28414 -4.233854,-7.24925 -7.246193,-15.42071 -8.449215,-22.91985 -0.438207,-2.7316 -0.324464,-2.7548 0.333265,-0.068 1.770985,7.23454 4.4543,13.81948 7.975085,19.57113 5.274478,8.61653 11.96715,14.60712 19.655831,17.59385 0.899969,0.3496 0.942218,0.35338 2.368651,0.21162 4.904678,-0.48741 9.037632,-2.49629 13.011351,-6.32435 2.71278,-2.61333 5.2895,-6.16578 7.51467,-10.36022 0.87569,-1.65069 3.47418,-7.39921 4.42487,-9.78895 0.45432,-1.14202 0.89564,-2.12901 0.98072,-2.19333 0.0851,-0.0643 0.41051,-0.19149 0.72317,-0.28261 0.31266,-0.0911 1.3146,-0.47123 2.22653,-0.84468 12.80374,-5.24339 23.19746,-18.73684 28.13969,-36.53182 0.60445,-2.17639 1.31181,-5.37561 1.75274,-7.92731 l 0.41933,-2.42669 -0.13902,-1.51639 c -0.58213,-6.34962 -2.22544,-16.09 -3.91312,-23.19414 -0.20422,-0.85963 -0.6109,-2.57003 -0.90373,-3.80086 -0.56933,-2.39301 -0.6,-2.58694 -0.40916,-2.58694 0.18926,0 2.10907,4.82298 4.51733,11.34854 1.16731,3.16298 1.5179,4.0069 1.5179,3.65378 0,-0.22227 -0.67073,-3.3529 -1.45328,-6.78322 -0.59949,-2.62782 -0.7536,-3.49921 -0.96152,-5.43642 -0.70708,-6.58812 -1.79717,-12.62967 -3.37942,-18.72976 -0.36518,-1.40793 -0.64984,-2.57794 -0.63256,-2.60002 0.0582,-0.0744 4.50192,13.47357 6.32853,19.29461 3.72984,11.88614 5.50545,18.47735 7.81689,29.01691 1.53989,7.0215 2.70813,14.0808 3.19078,19.28092 0.0947,1.0203 0.14224,1.23309 0.26411,1.18221 0.0817,-0.0341 0.3119,-0.10361 0.51148,-0.15441 0.19957,-0.0508 0.38651,-0.18075 0.41541,-0.28879 0.0289,-0.10803 0.002,-0.94126 -0.0595,-1.85161 -0.41981,-6.20143 -1.51602,-13.62204 -2.91479,-19.73129 -3.05643,-13.34921 -8.97527,-31.96866 -20.39225,-64.1498 -1.81845,-5.12568 -2.94212,-8.44095 -2.94352,-8.68454 -0.001,-0.21669 0.13255,-1.48524 0.29731,-2.81899 0.24747,-2.003271 0.31931,-2.383848 0.41312,-2.188317 0.44273,0.922781 6.55224,18.304987 9.27892,26.399487 8.27028,24.55147 13.44678,42.90819 16.19277,57.42223 1.49219,7.88707 2.40225,15.56899 2.72108,22.96889 0.14046,3.25987 0.0625,10.48616 -0.14593,13.52311 -0.7949,11.58304 -3.0336,22.1474 -6.53783,30.8517 -4.81158,11.95172 -13.62218,23.46645 -23.21653,30.34214 -6.44996,4.62231 -13.57955,7.49834 -20.13353,8.12176 -1.65076,0.15703 -1.61069,0.15578 -1.61069,0.05 z M 93.740108,252.52246 c 0.208441,-0.10479 1.029833,-0.47266 1.825316,-0.81749 2.033121,-0.88133 4.166984,-1.98791 5.973746,-3.09788 0.85095,-0.52278 1.56905,-0.91912 1.59577,-0.88078 0.0643,0.0921 -1.06661,0.99953 -2.47837,1.98859 -1.384278,0.9698 -2.629466,1.64063 -4.168302,2.24562 -1.135187,0.44629 -1.388226,0.51297 -2.558668,0.67417 l -0.568476,0.0783 z M 140.97101,119.24665 c -0.10635,-0.29901 -0.17203,-0.54365 -0.14597,-0.54365 0.0261,0 0.13437,0.24464 0.24071,0.54365 0.10634,0.299 0.17202,0.54364 0.14597,0.54364 -0.0261,0 -0.13437,-0.24464 -0.24071,-0.54364 z m -0.90762,-2.27651 c -2.97972,-7.30381 -7.46622,-15.32871 -11.65744,-20.851416 -3.26784,-4.305981 -7.2268,-8.610686 -10.52502,-11.444195 -0.73755,-0.633631 -0.86135,-0.919291 -2.58265,-5.959196 -1.2952,-3.792326 -2.61665,-7.978734 -3.80004,-12.038685 -0.33332,-1.143566 -0.61847,-2.025737 -0.63366,-1.96038 -0.0152,0.06535 0.29486,2.224196 0.68899,4.797421 1.43493,9.368453 1.72453,11.406167 1.62102,11.406167 -0.16779,0 -0.72719,-0.490251 -0.7646,-0.670091 -0.23849,-1.14637 -1.60811,-12.898578 -1.76717,-15.163494 -0.0577,-0.822259 -0.18506,-2.045455 -0.28292,-2.718212 -0.15066,-1.035786 -0.87499,-8.17763 -1.08551,-10.70296 -0.0759,-0.910323 -0.23196,-1.045948 -0.23462,-0.203866 -0.006,2.024774 -0.3568,9.142807 -0.66743,13.557083 -0.31809,4.520184 -0.918,11.104389 -1.09076,11.971359 -0.0362,0.18139 -0.26885,0.09975 -1.48522,-0.521033 -3.04004,-1.551514 -6.209524,-2.785649 -9.35599,-3.643037 -2.297912,-0.626163 -2.179159,-0.583278 -2.179159,-0.786958 0,-0.09776 0.387922,-1.610301 0.862048,-3.361198 3.35204,-12.378712 4.353868,-16.201363 5.910021,-22.550707 2.75617,-11.245631 5.04342,-22.938464 6.11468,-31.259439 0.22372,-1.737694 0.28235,-2.084817 0.33855,-2.004204 0.0211,0.03022 0.44059,1.64027 0.93229,3.577896 3.85467,15.190203 11.38807,39.114333 24.30504,77.186502 0.5833,1.71927 1.1256,3.401163 1.2051,3.737542 0.22549,0.954147 0.63212,2.252669 1.80878,5.776201 3.92138,11.74268 5.11614,15.42585 5.00387,15.42585 -0.0147,0 -0.31987,-0.71862 -0.6782,-1.59695 z"
         id="path832"
         inkscape:connector-curvature="0" />
      <path
         style="fill:#0377c8;stroke-width:0.11347683"
         d="m 110.08351,289.93956 c -1.56417,-0.23392 -1.59933,-0.71451 -0.071,-0.97106 1.05306,-0.17676 2.56643,0.0177 2.80543,0.36058 0.12495,0.17923 0.11255,0.21794 -0.10848,0.33849 -0.22712,0.12387 -0.67522,0.21886 -1.58342,0.33565 -0.18239,0.0235 -0.65151,-0.005 -1.0425,-0.0637 z m 20.903,-7.89803 c 0.0813,-0.18863 0.9872,-7.48924 0.93808,-7.5597 -0.0193,-0.0277 -0.96115,0.2977 -2.09294,0.72318 -6.03142,2.26748 -11.34491,3.14719 -16.88082,2.79483 -9.22869,-0.58742 -17.793393,-4.07114 -25.606079,-10.41536 -1.272754,-1.03353 -4.206677,-3.75876 -4.313486,-4.00667 -0.109308,-0.25371 0.200254,-0.11819 0.807883,0.35365 1.172997,0.91089 4.032217,2.88727 5.258404,3.63478 5.880568,3.58489 11.822348,5.66689 18.143868,6.35761 4.4634,0.4877 10.35274,-0.5519 15.79035,-2.78735 3.4022,-1.39868 4.26893,-2.00167 8.03828,-5.59242 12.06165,-11.49011 21.42642,-26.42833 28.36591,-45.2479 0.57883,-1.56977 1.05249,-2.77723 1.05258,-2.68323 0,0.4607 -0.62319,4.13335 -1.00084,5.89442 -0.74158,3.45802 -1.58713,6.45841 -2.81028,9.97214 -0.70996,2.03946 -0.98022,2.75087 -1.8877,4.9689 -0.34367,0.84 -0.4546,1.35036 -0.29372,1.3514 0.0391,0 1.03037,-0.31398 2.20285,-0.69829 1.69093,-0.55426 2.16497,-0.75813 2.29225,-0.98582 0.50352,-0.9007 2.06575,-7.18212 2.72382,-10.95193 1.07035,-6.13158 1.57803,-11.77857 1.68047,-18.69181 0.16862,-11.37886 -1.09802,-22.8676 -3.75868,-34.09227 -1.89179,-7.98098 -4.21783,-15.88818 -9.80099,-33.31773 -0.55044,-1.71836 -1.00079,-3.27434 -1.00079,-3.45773 0,-0.49586 0.39615,-3.73024 0.47206,-3.85415 0.11068,-0.18069 1.7677,4.81049 4.05127,12.203 3.32873,10.77594 6.05736,20.83493 7.90317,29.13471 3.98916,17.93752 5.10776,32.97311 3.57568,48.06251 -1.28,12.60676 -4.73412,24.58785 -9.63016,33.40342 -2.38218,4.28924 -5.9314,9.41009 -8.88279,12.8162 -3.10007,3.57769 -6.02075,6.3532 -9.37986,8.91359 -2.52113,1.92167 -6.15386,4.21311 -5.95779,3.75802 z M 104.7605,269.28098 c -8.900892,-1.05579 -17.646516,-6.06569 -25.611281,-14.67133 -4.235653,-4.57646 -8.772555,-10.94425 -11.71399,-16.44123 -3.164555,-5.91393 -5.583714,-12.85677 -6.770862,-19.43198 -0.37903,-2.09931 -0.410792,-3.10879 -0.04928,-1.5662 3.184203,13.58702 9.602678,25.07663 18.107773,32.41442 2.835512,2.44635 7.072352,5.02327 10.082434,6.13232 0.718376,0.26469 0.857266,0.27265 2.23455,0.12825 3.564238,-0.37374 6.788461,-1.55355 9.742326,-3.56494 0.90508,-0.6163 0.85946,-0.60981 2.79733,-0.39785 5.33402,0.58345 10.863,0.0789 16.21577,-1.47981 0.72954,-0.21244 1.45435,-0.4223 1.61068,-0.46636 0.39357,-0.11093 -0.99809,0.83963 -2.35937,1.61155 -3.53076,2.00211 -8.54254,4.18087 -11.23669,4.88487 -2.94753,0.7702 -5.14628,1.05057 -9.048244,1.15373 l -3.221365,0.0852 1.136952,0.57653 c 2.499116,1.26728 5.413487,2.24038 8.100787,2.70482 1.72617,0.29834 6.2331,0.33828 7.86392,0.0697 5.57201,-0.91765 10.62333,-3.34379 15.25411,-7.32655 6.73582,-5.79321 11.97615,-14.54076 15.0421,-25.10938 0.35834,-1.23523 0.91018,-2.75147 1.573,-4.322 3.58042,-8.48361 5.42992,-16.22409 6.17816,-25.85665 0.20361,-2.6213 0.28031,-8.94425 0.14416,-11.88569 -0.47872,-10.34255 -2.02043,-20.67511 -5.04948,-33.84174 -0.5245,-2.2799 -0.97653,-4.23175 -1.0045,-4.33745 -0.0917,-0.34647 0.1683,-0.0122 0.39622,0.50941 0.11974,0.27402 0.70928,1.75201 1.31009,3.2844 6.98892,17.82544 10.56844,32.7491 11.26289,46.95712 0.13902,2.84413 0.0634,8.5187 -0.14751,11.07671 -0.81665,9.90254 -2.91829,18.1152 -6.9038,26.97825 -1.6897,3.75759 -3.1849,6.44739 -5.31574,9.56277 -5.15053,7.53032 -11.08083,12.84884 -19.94898,17.89107 -5.00342,2.84482 -8.32627,4.01281 -13.15427,4.62378 -1.68842,0.21367 -5.91677,0.2442 -7.51789,0.0543 z M 118.23196,52.75749 c -0.98403,-0.660265 -4.37771,-2.591514 -5.87692,-3.344384 -3.05609,-1.534699 -6.33475,-2.901436 -9.14033,-3.810221 -1.15552,-0.374299 -1.61859,-0.579664 -1.63867,-0.726734 -0.0154,-0.112752 0.20558,-1.268879 0.49104,-2.569173 2.54844,-11.608083 4.16226,-20.324441 5.08042,-27.439675 0.22576,-1.749564 0.2828,-2.084834 0.34059,-2.001936 0.0219,0.03146 0.41795,1.549777 0.88003,3.374029 2.00338,7.909192 3.9306,14.647036 8.16833,28.557682 2.04147,6.701265 2.45348,8.092468 2.45348,8.284537 0,0.165156 -0.0793,0.131234 -0.75797,-0.324125 z"
         id="path830"
         inkscape:connector-curvature="0" />
      <path
         style="fill:#0e5baa;stroke-width:0.11347683"
         d="m 110.08351,289.93956 c -1.56417,-0.23392 -1.59933,-0.71451 -0.071,-0.97106 1.05306,-0.17676 2.56643,0.0177 2.80543,0.36058 0.12495,0.17923 0.11255,0.21794 -0.10848,0.33849 -0.22712,0.12387 -0.67522,0.21886 -1.58342,0.33565 -0.18239,0.0235 -0.65151,-0.005 -1.0425,-0.0637 z m -4.9265,-20.86937 c -0.2345,-0.0296 -1.02326,-0.14687 -1.75281,-0.2606 -11.177246,-1.74245 -22.063154,-9.81398 -31.271943,-23.18704 -3.065625,-4.45192 -4.611112,-7.11741 -6.422008,-11.07601 -2.371296,-5.18361 -4.197067,-10.97593 -5.081669,-16.12177 -0.305594,-1.77767 -0.189774,-1.8623 0.228891,-0.16725 3.232857,13.08888 9.41366,24.00627 17.932931,31.67558 0.642152,0.57809 1.409422,1.44093 2.064245,2.32136 6.972343,9.37454 16.619245,15.11342 26.307423,15.6501 7.05729,0.39095 13.76138,-1.62424 20.02339,-6.01883 12.25261,-8.59873 20.80844,-25.44856 22.77418,-44.85141 0.33153,-3.2724 0.41826,-5.16641 0.43565,-9.51374 0.0124,-3.10386 0.0581,-4.61638 0.17356,-5.74434 0.5632,-5.50231 0.60414,-12.92928 0.10656,-19.33116 -0.69921,-8.99605 -2.20299,-18.31451 -4.74322,-29.39221 -0.50119,-2.18562 -0.93437,-4.06033 -0.96265,-4.16602 -0.0319,-0.11943 -0.0108,-0.15621 0.0558,-0.0971 0.059,0.0523 0.57224,1.27022 1.14057,2.70653 11.58782,29.28468 14.38233,52.84279 8.72547,73.5568 -2.14104,7.83992 -5.57857,15.29664 -9.88437,21.44119 -4.60792,6.57572 -9.96813,11.75771 -16.31592,15.77344 -6.36006,4.02352 -10.18414,5.63449 -15.57544,6.5615 -1.21704,0.20927 -6.85677,0.38004 -7.95866,0.24101 z m 5.82688,-236.490434 c -1.74418,-0.755518 -5.67378,-2.218644 -5.95874,-2.218644 -0.0871,0 -0.18024,-0.08191 -0.20702,-0.182017 -0.0268,-0.100109 0.25463,-2.011352 0.62535,-4.247206 0.77093,-4.649504 1.40944,-8.797549 1.70319,-11.064586 0.26,-2.006656 0.28629,-2.138031 0.37832,-1.89091 0.0393,0.105615 0.48706,1.843341 0.99494,3.861614 0.50788,2.018272 1.49841,5.779598 2.20118,8.358502 1.49814,5.497634 2.11032,7.822848 2.11032,8.01548 0,0.179323 0.12381,0.221688 -1.84754,-0.632233 z"
         id="path828"
         inkscape:connector-curvature="0" />
    </g>
  </g>
</svg>
